<svg xmlns="http://www.w3.org/2000/svg" width="41.815" height="41.815" viewBox="0 0 41.815 41.815"><defs><style>.a{fill:#fff;}</style></defs><g transform="translate(-488.261 -111.336)"><g transform="translate(488.261 111.336)"><path class="a" d="M521.023,132.244l7.013-7.013a6.976,6.976,0,0,0,0-9.86l-2-1.992a6.97,6.97,0,0,0-9.858,0l-7.013,7.015-7.013-7.015a6.972,6.972,0,0,0-9.86,0L490.3,115.37a6.972,6.972,0,0,0,0,9.86l7.011,7.013-7.011,7.013a6.972,6.972,0,0,0,0,9.86l1.992,1.994a6.977,6.977,0,0,0,9.86,0l7.013-7.015,7.013,7.015a6.974,6.974,0,0,0,9.858,0l2-1.994a6.976,6.976,0,0,0,0-9.86Zm-3.944-17.969a5.71,5.71,0,0,1,8.068,0l1.992,1.994a5.711,5.711,0,0,1,0,8.066l-7.013,7.013-10.058-10.06Zm-15.819,35.939a5.706,5.706,0,0,1-8.068,0l-1.992-1.992a5.708,5.708,0,0,1,0-8.066l7.013-7.015,10.06,10.058Zm25.879-1.992-1.992,1.992a5.71,5.71,0,0,1-8.068,0L491.2,124.334a5.711,5.711,0,0,1,0-8.066l1.992-1.994a5.71,5.71,0,0,1,8.068,0l25.879,25.881A5.711,5.711,0,0,1,527.138,148.221Z" transform="translate(-488.261 -111.336)"/></g><g transform="translate(499.706 129.493)"><path class="a" d="M494.575,121.233a.646.646,0,0,0-.183.454.63.63,0,0,0,.183.448.643.643,0,0,0,.452.181.634.634,0,0,0,.448-.181.654.654,0,0,0,.183-.448.671.671,0,0,0-.183-.454A.678.678,0,0,0,494.575,121.233Z" transform="translate(-494.392 -121.063)"/></g><g transform="translate(504.172 125.012)"><path class="a" d="M496.972,118.848a.633.633,0,0,0,0,.9.64.64,0,0,0,.9,0,.635.635,0,0,0-.9-.9Z" transform="translate(-496.784 -118.662)"/></g><g transform="translate(501.942 127.249)"><path class="a" d="M495.775,120.046a.638.638,0,0,0,0,.9.633.633,0,0,0,.894,0,.638.638,0,0,0,0-.9A.63.63,0,0,0,495.775,120.046Z" transform="translate(-495.59 -119.86)"/></g><g transform="translate(506.412 122.791)"><path class="a" d="M498.167,117.647a.635.635,0,1,0,.9,0A.661.661,0,0,0,498.167,117.647Z" transform="translate(-497.984 -117.472)"/></g><g transform="translate(497.025 126.809)"><path class="a" d="M493.141,119.8a.64.64,0,0,0,0,.9.65.65,0,0,0,.448.183.631.631,0,0,0,.444-1.083A.652.652,0,0,0,493.141,119.8Z" transform="translate(-492.956 -119.624)"/></g><g transform="translate(501.493 122.331)"><path class="a" d="M496.428,118.311a.64.64,0,0,0,0-.9.633.633,0,0,0-.894,0,.64.64,0,0,0,0,.9.655.655,0,0,0,.45.185A.646.646,0,0,0,496.428,118.311Z" transform="translate(-495.349 -117.226)"/></g><g transform="translate(499.26 124.568)"><path class="a" d="M495.234,119.5a.632.632,0,0,0-.894-.892.628.628,0,0,0,0,.892.61.61,0,0,0,.442.19A.637.637,0,0,0,495.234,119.5Z" transform="translate(-494.153 -118.424)"/></g><g transform="translate(503.723 120.109)"><path class="a" d="M497.629,117.106a.633.633,0,0,0,0-.894.652.652,0,0,0-.892,0,.616.616,0,0,0,0,.894.6.6,0,0,0,.444.183A.619.619,0,0,0,497.629,117.106Z" transform="translate(-496.544 -116.035)"/></g><g transform="translate(494.345 124.126)"><path class="a" d="M491.7,118.364a.643.643,0,0,0-.183.452.634.634,0,0,0,.183.448.649.649,0,0,0,.444.185.642.642,0,0,0,.45-.185.648.648,0,0,0,.189-.448.636.636,0,0,0-1.083-.452Z" transform="translate(-491.52 -118.188)"/></g><g transform="translate(498.81 119.649)"><path class="a" d="M494.991,116.875a.637.637,0,0,0,0-.9.628.628,0,0,0-.892,0,.637.637,0,0,0,0,.9.636.636,0,0,0,.892,0Z" transform="translate(-493.912 -115.789)"/></g><g transform="translate(496.574 121.887)"><path class="a" d="M493.8,118.067a.628.628,0,0,0,0-.892.634.634,0,1,0-.9.892.643.643,0,0,0,.452.19A.622.622,0,0,0,493.8,118.067Z" transform="translate(-492.714 -116.988)"/></g><g transform="translate(501.043 117.426)"><path class="a" d="M496.193,115.669a.614.614,0,0,0,.183-.448.625.625,0,0,0-.183-.446.634.634,0,0,0-1.085.446.644.644,0,0,0,.635.635A.637.637,0,0,0,496.193,115.669Z" transform="translate(-495.108 -114.598)"/></g><g transform="translate(491.657 121.447)"><path class="a" d="M490.272,116.927a.638.638,0,0,0-.192.452.63.63,0,0,0,.192.448.621.621,0,0,0,.441.187.638.638,0,0,0,.452-.187.63.63,0,0,0,.185-.448.639.639,0,0,0-.185-.452A.656.656,0,0,0,490.272,116.927Z" transform="translate(-490.08 -116.752)"/></g><g transform="translate(493.892 119.206)"><path class="a" d="M492.365,116.631a.639.639,0,0,0,0-.9.646.646,0,0,0-.9,0,.632.632,0,0,0,0,.9.625.625,0,0,0,.45.185A.639.639,0,0,0,492.365,116.631Z" transform="translate(-491.277 -115.552)"/></g><g transform="translate(496.129 116.968)"><path class="a" d="M493.557,115.439a.64.64,0,0,0,0-.9.632.632,0,0,0-.9,0,.64.64,0,0,0,0,.9.64.64,0,0,0,.9,0Z" transform="translate(-492.476 -114.353)"/></g><g transform="translate(498.362 114.742)"><path class="a" d="M494.757,114.235a.645.645,0,0,0,.185-.45.631.631,0,0,0-1.085-.442.632.632,0,0,0-.185.442.653.653,0,0,0,.185.45.667.667,0,0,0,.45.185A.653.653,0,0,0,494.757,114.235Z" transform="translate(-493.672 -113.161)"/></g><g transform="translate(518.706 148.492)"><path class="a" d="M504.755,131.421a.62.62,0,0,0-.185.444.628.628,0,0,0,.635.633.648.648,0,0,0,.452-.183.667.667,0,0,0,.183-.45.634.634,0,0,0-1.085-.444Z" transform="translate(-504.57 -131.24)"/></g><g transform="translate(523.175 144.014)"><path class="a" d="M507.149,129.026a.633.633,0,0,0,.448,1.083.665.665,0,0,0,.452-.183.636.636,0,0,0-.9-.9Z" transform="translate(-506.964 -128.841)"/></g><g transform="translate(520.942 146.25)"><path class="a" d="M505.953,130.225a.631.631,0,0,0,0,.892.62.62,0,0,0,.894,0,.632.632,0,0,0-.894-.892Z" transform="translate(-505.768 -130.039)"/></g><g transform="translate(525.413 141.791)"><path class="a" d="M508.346,127.825a.621.621,0,0,0-.183.452.614.614,0,0,0,.183.444.641.641,0,0,0,.45.189.623.623,0,0,0,.442-.189.615.615,0,0,0,.192-.444.622.622,0,0,0-.192-.452A.656.656,0,0,0,508.346,127.825Z" transform="translate(-508.163 -127.65)"/></g><g transform="translate(516.025 145.811)"><path class="a" d="M503.319,129.983a.633.633,0,0,0,0,.894.644.644,0,0,0,.45.187.614.614,0,0,0,.442-.187.637.637,0,0,0,.192-.448.627.627,0,0,0-.192-.446A.645.645,0,0,0,503.319,129.983Z" transform="translate(-503.134 -129.804)"/></g><g transform="translate(518.262 143.569)"><path class="a" d="M505.411,129.682a.632.632,0,1,0-.892,0,.61.61,0,0,0,.442.19A.63.63,0,0,0,505.411,129.682Z" transform="translate(-504.332 -128.603)"/></g><g transform="translate(520.492 141.332)"><path class="a" d="M506.613,128.49a.647.647,0,1,0-.452.183A.66.66,0,0,0,506.613,128.49Z" transform="translate(-505.527 -127.404)"/></g><g transform="translate(522.733 139.108)"><path class="a" d="M507.8,127.284a.631.631,0,0,0,0-.892.649.649,0,0,0-.894,0,.64.64,0,0,0,0,.892.629.629,0,0,0,.454.19A.622.622,0,0,0,507.8,127.284Z" transform="translate(-506.727 -126.213)"/></g><g transform="translate(513.339 143.129)"><path class="a" d="M501.885,128.542a.627.627,0,0,0,0,.9.608.608,0,0,0,.45.183.632.632,0,0,0,.444-1.083A.659.659,0,0,0,501.885,128.542Z" transform="translate(-501.695 -128.367)"/></g><g transform="translate(517.814 138.652)"><path class="a" d="M505.169,127.054a.642.642,0,0,0,0-.9.634.634,0,0,0-.892,0,.634.634,0,1,0,.892.9Z" transform="translate(-504.092 -125.969)"/></g><g transform="translate(515.575 140.889)"><path class="a" d="M503.978,128.244a.628.628,0,0,0,0-.892.64.64,0,0,0-.9,0,.633.633,0,0,0,.45,1.079A.618.618,0,0,0,503.978,128.244Z" transform="translate(-502.893 -127.167)"/></g><g transform="translate(520.044 136.428)"><path class="a" d="M506.37,125.85a.633.633,0,0,0,.185-.454.607.607,0,0,0-.185-.441.654.654,0,0,0-.9,0,.627.627,0,0,0,.006.894.612.612,0,0,0,.442.181A.626.626,0,0,0,506.37,125.85Z" transform="translate(-505.287 -124.777)"/></g><g transform="translate(510.658 140.449)"><path class="a" d="M500.449,127.106a.63.63,0,0,0-.19.45.637.637,0,0,0,.633.635.66.66,0,0,0,.45-.183.645.645,0,0,0,.185-.452.637.637,0,0,0-.185-.45A.658.658,0,0,0,500.449,127.106Z" transform="translate(-500.259 -126.932)"/></g><g transform="translate(515.13 135.97)"><path class="a" d="M503.735,125.617a.64.64,0,0,0,0-.9.635.635,0,1,0,0,.9Z" transform="translate(-502.654 -124.532)"/></g><g transform="translate(512.895 138.207)"><path class="a" d="M502.542,126.811a.634.634,0,1,0-.9,0,.645.645,0,0,0,.9,0Z" transform="translate(-501.457 -125.73)"/></g><g transform="translate(517.364 133.745)"><path class="a" d="M504.936,124.413a.617.617,0,0,0,.181-.45.634.634,0,0,0-.181-.448.659.659,0,0,0-.894,0,.636.636,0,0,0-.19.448.641.641,0,0,0,.635.635A.641.641,0,0,0,504.936,124.413Z" transform="translate(-503.851 -123.34)"/></g><g transform="translate(513.339 120.105)"><path class="a" d="M501.885,116.214a.638.638,0,0,0-.19.45.625.625,0,0,0,.19.444.632.632,0,0,0,.894-.894A.644.644,0,0,0,501.885,116.214Z" transform="translate(-501.695 -116.033)"/></g><g transform="translate(515.575 122.331)"><path class="a" d="M503.078,117.411a.64.64,0,0,0,0,.9.666.666,0,0,0,.45.185.655.655,0,0,0,.45-.185.636.636,0,0,0-.9-.9Z" transform="translate(-502.893 -117.226)"/></g><g transform="translate(517.814 124.568)"><path class="a" d="M504.277,118.61a.631.631,0,0,0,0,.892.618.618,0,0,0,.892,0,.631.631,0,0,0-.892-.892Z" transform="translate(-504.092 -118.424)"/></g><g transform="translate(520.044 126.809)"><path class="a" d="M505.92,120.884a.635.635,0,0,0,.45-1.083.652.652,0,0,0-.892,0,.637.637,0,0,0-.19.45.659.659,0,0,0,.185.45A.628.628,0,0,0,505.92,120.884Z" transform="translate(-505.287 -119.624)"/></g><g transform="translate(516.025 117.424)"><path class="a" d="M503.319,114.776a.632.632,0,1,0,1.085.446.627.627,0,0,0-.192-.446A.645.645,0,0,0,503.319,114.776Z" transform="translate(-503.134 -114.597)"/></g><g transform="translate(518.262 119.649)"><path class="a" d="M504.518,115.975a.637.637,0,0,0,0,.9.625.625,0,0,0,.442.183.645.645,0,0,0,.45-.183.637.637,0,0,0,0-.9A.628.628,0,0,0,504.518,115.975Z" transform="translate(-504.332 -115.789)"/></g><g transform="translate(520.492 121.887)"><path class="a" d="M506.162,118.25a.629.629,0,1,0-.45-.183A.622.622,0,0,0,506.162,118.25Z" transform="translate(-505.527 -116.988)"/></g><g transform="translate(522.733 124.126)"><path class="a" d="M507.362,119.449a.636.636,0,0,0,.441-1.085.628.628,0,0,0-1.075.452.641.641,0,0,0,.181.448A.647.647,0,0,0,507.362,119.449Z" transform="translate(-506.727 -118.188)"/></g><g transform="translate(518.706 114.745)"><path class="a" d="M504.755,113.334a.64.64,0,0,0,0,.9.633.633,0,0,0,.894,0,.627.627,0,0,0,.007-.892A.668.668,0,0,0,504.755,113.334Z" transform="translate(-504.57 -113.162)"/></g><g transform="translate(523.175 119.206)"><path class="a" d="M507.6,116.816a.658.658,0,0,0,.452-.185.635.635,0,0,0,0-.9.643.643,0,0,0-.9,0,.633.633,0,0,0,.448,1.081Z" transform="translate(-506.964 -115.552)"/></g><g transform="translate(520.942 116.968)"><path class="a" d="M506.4,115.622a.623.623,0,0,0,.45-.189.632.632,0,1,0-.894,0A.623.623,0,0,0,506.4,115.622Z" transform="translate(-505.768 -114.353)"/></g><g transform="translate(525.413 121.447)"><path class="a" d="M508.8,118.014a.643.643,0,0,0,.442-.187.63.63,0,0,0,.192-.448.638.638,0,0,0-.192-.452.656.656,0,0,0-.892,0,.637.637,0,0,0-.183.452.628.628,0,0,0,.183.448A.647.647,0,0,0,508.8,118.014Z" transform="translate(-508.163 -116.752)"/></g><g transform="translate(491.662 141.791)"><path class="a" d="M490.27,127.825a.617.617,0,0,0-.187.452.609.609,0,0,0,.187.444.62.62,0,0,0,.448.189.628.628,0,0,0,.444-.189.615.615,0,0,0,.185-.444.632.632,0,0,0-.185-.452A.656.656,0,0,0,490.27,127.825Z" transform="translate(-490.083 -127.65)"/></g><g transform="translate(493.892 144.014)"><path class="a" d="M491.464,129.026a.636.636,0,0,0,0,.9.647.647,0,0,0,.45.183.661.661,0,0,0,.452-.183.637.637,0,0,0-.9-.9Z" transform="translate(-491.277 -128.841)"/></g><g transform="translate(496.129 146.25)"><path class="a" d="M492.661,130.225a.635.635,0,1,0,.9,0A.632.632,0,0,0,492.661,130.225Z" transform="translate(-492.476 -130.039)"/></g><g transform="translate(498.362 148.497)"><path class="a" d="M494.307,132.5a.628.628,0,0,0,.635-.633.619.619,0,0,0-.185-.444.662.662,0,0,0-.9,0,.643.643,0,0,0-.185.444.65.65,0,0,0,.185.45A.64.64,0,0,0,494.307,132.5Z" transform="translate(-493.672 -131.243)"/></g><g transform="translate(494.345 139.108)"><path class="a" d="M491.7,126.392a.635.635,0,0,0,0,.892.617.617,0,0,0,.444.19.624.624,0,0,0,.45-.19.622.622,0,0,0,0-.892A.649.649,0,0,0,491.7,126.392Z" transform="translate(-491.52 -126.213)"/></g><g transform="translate(498.81 143.569)"><path class="a" d="M494.548,129.872a.61.61,0,0,0,.442-.19.62.62,0,0,0,0-.894.632.632,0,1,0-.442,1.085Z" transform="translate(-493.912 -128.603)"/></g><g transform="translate(496.574 141.332)"><path class="a" d="M492.9,127.59a.64.64,0,0,0,0,.9.66.66,0,0,0,.452.183.635.635,0,1,0-.452-1.083Z" transform="translate(-492.714 -127.404)"/></g><g transform="translate(501.043 145.811)"><path class="a" d="M495.743,131.064a.628.628,0,0,0,.45-.187.636.636,0,0,0,.183-.448.63.63,0,0,0-1.077-.446.633.633,0,0,0-.19.446.644.644,0,0,0,.19.448A.625.625,0,0,0,495.743,131.064Z" transform="translate(-495.108 -129.804)"/></g><g transform="translate(497.025 136.426)"><path class="a" d="M493.141,124.957a.6.6,0,0,0-.185.441.634.634,0,0,0,1.077.454.639.639,0,0,0,.19-.454.612.612,0,0,0-.19-.441A.641.641,0,0,0,493.141,124.957Z" transform="translate(-492.956 -124.776)"/></g><g transform="translate(501.493 140.889)"><path class="a" d="M495.984,128.431a.633.633,0,0,0,.45-1.079.64.64,0,0,0-.9,0,.631.631,0,0,0,0,.892A.618.618,0,0,0,495.984,128.431Z" transform="translate(-495.349 -127.167)"/></g><g transform="translate(499.256 138.652)"><path class="a" d="M494.784,127.239a.664.664,0,0,0,.452-.185.646.646,0,0,0,0-.9.637.637,0,0,0-.894,0,.636.636,0,0,0,.442,1.086Z" transform="translate(-494.151 -125.969)"/></g><g transform="translate(503.731 143.129)"><path class="a" d="M497.177,129.625a.635.635,0,0,0,.448-1.083.656.656,0,0,0-.892,0,.64.64,0,0,0,0,.9A.6.6,0,0,0,497.177,129.625Z" transform="translate(-496.548 -128.367)"/></g></g></svg>