<svg xmlns="http://www.w3.org/2000/svg" width="55.217" height="36.769" viewBox="0 0 55.217 36.769"><defs><style>.a{fill:#fff;}</style></defs><g transform="translate(-266.358 -326.201)"><path class="a" d="M310.663,356.944h-41.2a3.107,3.107,0,1,1,0-6.214h41.2a3.107,3.107,0,0,1,0,6.214Zm-41.2-4.841a1.734,1.734,0,1,0,0,3.468h41.2a1.734,1.734,0,0,0,0-3.468Z"/><path class="a" d="M310.422,352.1H269.706v-.686A20.35,20.35,0,0,1,274.6,338.18a.686.686,0,1,1,1.042.893,18.982,18.982,0,0,0-4.548,11.657h37.946A18.99,18.99,0,0,0,280.36,335.1a.687.687,0,0,1-.7-1.18,20.363,20.363,0,0,1,30.764,17.5Z"/><path class="a" d="M291.828,332.515a.6.6,0,0,1-.06,0,18.132,18.132,0,0,0-3.408,0,.689.689,0,0,1-.557-.209,3.669,3.669,0,0,1-1.005-2.553,3.277,3.277,0,1,1,6.531,0,3.668,3.668,0,0,1-1.005,2.553A.685.685,0,0,1,291.828,332.515Zm-1.764-4.941a2.051,2.051,0,0,0-1.893,2.176,2.332,2.332,0,0,0,.427,1.365,19.136,19.136,0,0,1,2.932,0,2.331,2.331,0,0,0,.426-1.365A2.051,2.051,0,0,0,290.064,327.574Z"/><path class="a" d="M309.4,348.475h-23.09a.687.687,0,0,1,0-1.373H309.4a.687.687,0,0,1,0,1.373Z"/><path class="a" d="M305.456,338.277h-1.373a.687.687,0,0,1,0-1.373h1.373a.687.687,0,1,1,0,1.373Z"/><path class="a" d="M313.633,338.277H312.26a.687.687,0,0,1,0-1.373h1.373a.687.687,0,0,1,0,1.373Z"/><path class="a" d="M311.553,343.221h-1.372a.687.687,0,1,1,0-1.373h1.372a.687.687,0,1,1,0,1.373Z"/><path class="a" d="M319.73,343.221h-1.373a.687.687,0,0,1,0-1.373h1.373a.687.687,0,1,1,0,1.373Z"/><path class="a" d="M312.712,349.065h-1.373a.687.687,0,0,1,0-1.373h1.373a.687.687,0,1,1,0,1.373Z"/><path class="a" d="M320.889,349.065h-1.373a.687.687,0,0,1,0-1.373h1.373a.687.687,0,0,1,0,1.373Z"/><path class="a" d="M278.835,362.97a3.7,3.7,0,1,1,3.7-3.7A3.7,3.7,0,0,1,278.835,362.97Zm0-6.026a2.326,2.326,0,1,0,2.326,2.327A2.329,2.329,0,0,0,278.835,356.944Z"/><path class="a" d="M301.293,362.97a3.7,3.7,0,1,1,3.7-3.7A3.7,3.7,0,0,1,301.293,362.97Zm0-6.026a2.326,2.326,0,1,0,2.326,2.327A2.329,2.329,0,0,0,301.293,356.944Z"/></g></svg>