<?xml version="1.0" encoding="utf-8"?>
<!-- Generator: Adobe Illustrator 25.0.1, SVG Export Plug-In . SVG Version: 6.00 Build 0)  -->
<svg version="1.1" id="Layer_1" xmlns="http://www.w3.org/2000/svg" xmlns:xlink="http://www.w3.org/1999/xlink" x="0px" y="0px"
	 viewBox="0 0 53 53" style="enable-background:new 0 0 53 53;" xml:space="preserve">
<style type="text/css">
	.st0{fill:none;}
	.st1{fill:#DB343C;}
</style>
<g transform="translate(0.484 -0.5)">
	<path class="st0" d="M26,0.5c14.6,0,26.5,11.9,26.5,26.5S40.7,53.5,26,53.5S-0.5,41.6-0.5,27S11.4,0.5,26,0.5z"/>
	<path class="st1" d="M26,2.5c-3.3,0-6.5,0.6-9.5,1.9c-2.9,1.2-5.5,3-7.8,5.3c-2.3,2.3-4,4.9-5.3,7.8c-1.3,3-1.9,6.2-1.9,9.5
		s0.6,6.5,1.9,9.5c1.2,2.9,3,5.5,5.3,7.8c2.3,2.3,4.9,4,7.8,5.3c3,1.3,6.2,1.9,9.5,1.9s6.5-0.6,9.5-1.9c2.9-1.2,5.5-3,7.8-5.3
		c2.3-2.3,4-4.9,5.3-7.8c1.3-3,1.9-6.2,1.9-9.5s-0.6-6.5-1.9-9.5c-1.2-2.9-3-5.5-5.3-7.8c-2.3-2.3-4.9-4-7.8-5.3
		C32.5,3.1,29.3,2.5,26,2.5 M26,0.5c14.6,0,26.5,11.9,26.5,26.5S40.7,53.5,26,53.5S-0.5,41.6-0.5,27S11.4,0.5,26,0.5z"/>
</g>
<g>
	<g>
		<g>
			<path class="st1" d="M19.7,25.7v3.8H26c-0.3,1.6-1.9,4.8-6.3,4.8c-3.8,0-6.9-3.1-6.9-7c0-3.9,3.1-7,6.9-7c2.2,0,3.6,0.9,4.4,1.7
				l3-2.9c-1.9-1.8-4.4-2.9-7.4-2.9c-6.1,0-11.1,5-11.1,11.1c0,6.1,5,11.1,11.1,11.1c6.4,0,10.6-4.5,10.6-10.8
				c0-0.7-0.1-1.3-0.2-1.8H19.7L19.7,25.7z"/>
			<path class="st1" d="M43.4,25.7h-3.2v-3.2h-3.2v3.2h-3.2v3.2h3.2V32h3.2v-3.2h3.2V25.7z"/>
		</g>
	</g>
</g>
</svg>
