<svg xmlns="http://www.w3.org/2000/svg" width="53" height="53" viewBox="0 0 53 53"><defs><style>.a{fill:#cd272e;}.b,.d{fill:none;}.b{stroke:#db343c;stroke-width:2px;}.c{stroke:none;}</style></defs><g transform="translate(0.484 0.5)"><g transform="translate(14.078 14.078)"><g transform="translate(0 0)"><path class="a" d="M-1011.573,547.918h-9.716a7.863,7.863,0,0,1-7.854-7.854v-9.716a7.863,7.863,0,0,1,7.854-7.854h9.716a7.863,7.863,0,0,1,7.854,7.854v9.716A7.863,7.863,0,0,1-1011.573,547.918Zm-9.716-22.59a5.025,5.025,0,0,0-5.02,5.02v9.716a5.026,5.026,0,0,0,5.02,5.02h9.716a5.026,5.026,0,0,0,5.02-5.02v-9.716a5.026,5.026,0,0,0-5.02-5.02Z" transform="translate(1029.143 -522.494)"/><path class="a" d="M-997.909,560.225a6.505,6.505,0,0,1-6.5-6.5,6.5,6.5,0,0,1,6.5-6.5,6.5,6.5,0,0,1,6.5,6.5A6.505,6.505,0,0,1-997.909,560.225Zm0-10.445a3.952,3.952,0,0,0-3.947,3.947,3.952,3.952,0,0,0,3.947,3.947,3.951,3.951,0,0,0,3.947-3.947A3.951,3.951,0,0,0-997.909,549.779Z" transform="translate(1010.621 -541.015)"/><path class="a" d="M-953.551,542.451a1.1,1.1,0,0,1-1.1,1.1,1.1,1.1,0,0,1-1.1-1.1,1.1,1.1,0,0,1,1.1-1.1A1.1,1.1,0,0,1-953.551,542.451Z" transform="translate(974.187 -536.614)"/></g></g><g class="b" transform="translate(-0.484 -0.5)"><circle class="c" cx="26.5" cy="26.5" r="26.5"/><circle class="d" cx="26.5" cy="26.5" r="25.5"/></g></g></svg>