<svg xmlns="http://www.w3.org/2000/svg" width="53" height="53" viewBox="0 0 53 53"><defs><style>.a{fill:#cd272e;}.b{fill:none;}.c,.d{stroke:none;}.d{fill:#db343c;}</style></defs><g transform="translate(-0.484 0.5)"><g transform="translate(16.563 16.563)"><rect class="a" width="4.808" height="13.436" transform="translate(0 6.654)"/><path class="a" d="M-989.053,1065.061h3.711v1.866s.571-1.883,4-1.883c2.832,0,4.857,1.1,4.857,4.133v9.319h-3.963s.021-7.837.044-8.079a2.221,2.221,0,0,0-2.239-2.218,2.444,2.444,0,0,0-2.657,2.547v7.75h-3.754Z" transform="translate(996.342 -1058.407)"/><ellipse class="a" cx="2.404" cy="2.404" rx="2.404" ry="2.404" transform="translate(0 0)"/></g><g class="b" transform="translate(0.484 -0.5)"><path class="c" d="M26.5,0A26.5,26.5,0,1,1,0,26.5,26.5,26.5,0,0,1,26.5,0Z"/><path class="d" d="M 26.5 2 C 23.19164085388184 2 19.98331069946289 2.647499084472656 16.964111328125 3.924510955810547 C 14.04690933227539 5.158378601074219 11.42657089233398 6.925201416015625 9.175891876220703 9.175891876220703 C 6.925201416015625 11.42657089233398 5.158378601074219 14.04690933227539 3.924510955810547 16.964111328125 C 2.647499084472656 19.98331069946289 2 23.19164085388184 2 26.5 C 2 29.80835914611816 2.647499084472656 33.01668930053711 3.924510955810547 36.035888671875 C 5.158378601074219 38.95309066772461 6.925201416015625 41.57342910766602 9.175891876220703 43.82411193847656 C 11.42657089233398 46.07479858398438 14.04690933227539 47.84162139892578 16.964111328125 49.07548904418945 C 19.98331069946289 50.35250091552734 23.19164085388184 51 26.5 51 C 29.80835914611816 51 33.01668930053711 50.35250091552734 36.035888671875 49.07548904418945 C 38.95309066772461 47.84162139892578 41.57342910766602 46.07479858398438 43.82411193847656 43.82411193847656 C 46.07479858398438 41.57342910766602 47.84162139892578 38.95309066772461 49.07548904418945 36.035888671875 C 50.35250091552734 33.01668930053711 51 29.80835914611816 51 26.5 C 51 23.19164085388184 50.35250091552734 19.98331069946289 49.07548904418945 16.964111328125 C 47.84162139892578 14.04690933227539 46.07479858398438 11.42657089233398 43.82411193847656 9.175891876220703 C 41.57342910766602 6.925201416015625 38.95309066772461 5.158378601074219 36.035888671875 3.924510955810547 C 33.01668930053711 2.647499084472656 29.80835914611816 2 26.5 2 M 26.5 0 C 41.13554000854492 0 53 11.86445999145508 53 26.5 C 53 41.13554000854492 41.13554000854492 53 26.5 53 C 11.86445999145508 53 0 41.13554000854492 0 26.5 C 0 11.86445999145508 11.86445999145508 0 26.5 0 Z"/></g></g></svg>