<svg xmlns="http://www.w3.org/2000/svg" width="146.517" height="35.788" viewBox="0 0 146.517 35.788"><defs><style>.a,.d{fill:#cd272e;}.a{font-size:15px;font-family:Montserrat-Bold, Montserrat;letter-spacing:0.032em;font-weight:700;}.b{fill:#db343c;}.c,.h{fill:#fff;}.c{font-size:13px;font-family:Montserrat-Regular, Montserrat;font-weight:400;}.e{fill:#050505;}.f{fill:#2a292c;}.g{fill:#ef645e;}.i{fill:#9d9fa3;}.j{fill:#e5e5e5;}.k{fill:#97969b;}.l{fill:none;}.m{fill:#f79a34;}.n{fill:#e73625;}.o{opacity:0.46;}.p{fill:#9a9a9a;}</style></defs><g transform="translate(-10.483 -86.469)"><text class="a" transform="translate(65 102)"><tspan x="0" y="0">RED</tspan><tspan class="b" y="0"> </tspan><tspan y="0">COMBI</tspan><tspan class="c"><tspan x="0" y="17">DELIVERY</tspan></tspan></text><g transform="translate(139 109.971)"><path class="d" d="M-428.075,4320.049a.55.55,0,0,1,.55-.55h6.216a.55.55,0,0,1,.55.55.55.55,0,0,1-.55.55h-6.216A.55.55,0,0,1-428.075,4320.049Z" transform="translate(428.075 -4311.599)"/><path class="d" d="M-439.452,4146.065a.55.55,0,0,1,.55.55.55.55,0,0,1-.55.55h-5.006a.55.55,0,0,1-.55-.55.55.55,0,0,1,.55-.55Z" transform="translate(446.823 -4143.432)"/><path class="d" d="M-546,4060.447H-547.6a.55.55,0,0,1-.55-.55.55.55,0,0,1,.55-.55H-546a.55.55,0,0,1,.55.55A.55.55,0,0,1-546,4060.447Z" transform="translate(559.664 -4059.347)"/><path class="d" d="M-545.067,4233.337a.546.546,0,0,0,.069.266.55.55,0,0,0,.481.284h9.957a.55.55,0,0,0,.481-.284.546.546,0,0,0,.069-.266.549.549,0,0,0-.55-.55h-9.957A.549.549,0,0,0-545.067,4233.337Z" transform="translate(545.507 -4227.52)"/><path class="d" d="M-651.283,4233.337a.546.546,0,0,0,.069.266.55.55,0,0,0,.481.284h.935a.55.55,0,0,0,.481-.284.546.546,0,0,0,.069-.266.549.549,0,0,0-.55-.55h-.935A.549.549,0,0,0-651.283,4233.337Z" transform="translate(665.723 -4227.52)"/><path class="d" d="M-438.366,4060.447h-6.677a.55.55,0,0,1-.493-.306.544.544,0,0,1-.057-.244.544.544,0,0,1,.057-.244.55.55,0,0,1,.493-.306h6.677a.549.549,0,0,1,.492.305.545.545,0,0,1,.058.244.544.544,0,0,1-.058.245A.549.549,0,0,1-438.366,4060.447Z" transform="translate(445.758 -4059.347)"/></g><g transform="matrix(0.999, 0.035, -0.035, 0.999, -1295.79, 3688.812)"><g transform="translate(1187.335 -3628.771)"><path class="e" d="M1329.329-3281.092c.763-.208,6.241-1.387,6.241-1.387s1.526.693,2.15.208,2.219-.416,3.12-.416h5.062a8.053,8.053,0,0,0,2.011.555c.416-.069,5.616-.693,6.1-1.109s-.139-.624.763-.693,3.051.555,3.883.555a16.293,16.293,0,0,0,2.7-.485l5.27-2.427.373-5.17L1356.371-3296l-19.692,9.083-11.372.832.624,3.051,3.467,2.219Z" transform="translate(-1325.307 3296)"/></g><g transform="translate(1185.523 -3616.833)"><path class="f" d="M1294.819-3049.883a17.051,17.051,0,0,1-.438,4.188c-.388.978-.535,1.5-2.14,1.551s-1.967.178-2.432-.146a6.186,6.186,0,0,1-1.508-3.21c-.194-1.41-.243-2.821-.243-2.821l6.76-.226Z" transform="translate(-1288.059 3050.547)"/></g><g transform="translate(1201.067 -3617.684)"><path class="f" d="M1607.7-3068.031a9.592,9.592,0,0,0,.178,2.853,7.076,7.076,0,0,0,1.216,2.894c.551.543.64.616,1.256.624a4.023,4.023,0,0,0,1.581-.105,2.126,2.126,0,0,0,1.281-1.548,7.861,7.861,0,0,0,.3-2.261c-.016-.689-.2-2.367-.2-2.367Z" transform="translate(-1607.66 3068.031)"/></g><g transform="translate(1209.396 -3623.378)"><path class="f" d="M1781.127-3184.757a1.6,1.6,0,0,1,1.718-.227,4.163,4.163,0,0,1,2.143,2.717,17.916,17.916,0,0,1,.035,6.657c-.332,1.106-.832,2.08-1.561,2.234a3.834,3.834,0,0,1-2.594,0,5.044,5.044,0,0,1-1.718-3.339c-.065-1.2-.454-2.2,0-3.372a19.85,19.85,0,0,0,.519-4.377Z" transform="translate(-1778.932 3185.126)"/></g><g transform="translate(1222.608 -3622.776)"><path class="f" d="M2052.218-3172.575s1.82-.537,2.617.364c.817.923.977,2.875.89,4.626a10.6,10.6,0,0,1-.238,2.81c-.281,1.146-.411,2.14-1.1,2.248s-1.989.195-1.989.195a1.736,1.736,0,0,1-1.189-.908,7.666,7.666,0,0,1-.6-3.273,12.968,12.968,0,0,1,.562-3.081C2051.467-3170.438,2052.218-3172.575,2052.218-3172.575Z" transform="translate(-2050.585 3172.733)"/></g><g transform="translate(1181.049 -3645.782)"><path class="d" d="M1197.129-3618.178s.146,1.459,1.362,1.6,13.909-.681,16.633-.8,6.274-.365,7.538-.219,2.821.195,3.4-.34a6.111,6.111,0,0,0,1.07-2.772c.1-.632.631-3.458,1.6-4.042a1.313,1.313,0,0,1,2.092.686,8.18,8.18,0,0,1,.438,4.28,13.492,13.492,0,0,1-.486,1.8l8.268-.195a8.351,8.351,0,0,0,1.167-2.237,5.911,5.911,0,0,1,1.216-2.383,1.427,1.427,0,0,1,1.6-.292,1.5,1.5,0,0,1,.614,1.652,17.5,17.5,0,0,1-.371,2.19c-.118.274-.353.433-.426.566a.224.224,0,0,0,.017.243s1.3-.035,1.479-1.781a47.5,47.5,0,0,0,0-8.316c-.34-2.626-.778-3.55-1.216-4.037s-1.8-6.136-1.8-6.136-.485-1.572-.67-2.126-.589-1.5-.9-1.641a76.877,76.877,0,0,0-10.294-2.207,77.386,77.386,0,0,0-8.658-1.1,92.587,92.587,0,0,0-13.324,1.1c-5.107.924-5.447,1.021-5.787,1.459a4.925,4.925,0,0,0-.486.729,3.868,3.868,0,0,0-.778,1.41c-.438,1.119-1.654,3.453-2.14,4.961s-1.167,3.21-1.167,3.21a3.806,3.806,0,0,0-.584.924,20.574,20.574,0,0,0-.486,4.426c0,2.14.681,6.809.681,6.809Z" transform="translate(-1196.059 3645.782)"/></g><g transform="translate(1181.753 -3634.182)"><path class="g" d="M1233.521-3406.157a2.039,2.039,0,0,0-.624,1.248,12.529,12.529,0,0,0-.139,1.734s.035.139-.624.173-18.028,1.352-18.028,1.352a22.183,22.183,0,0,1-.035-2.739,1.6,1.6,0,0,1,.9-1.075c.347-.138.485-.208.485-.208l-4.923.59a1.681,1.681,0,0,1,.485-.208,13.34,13.34,0,0,1,2.046-.416c.381,0,3.294-.173,3.779-.243s10.4-.832,10.4-.832,0-.1.347-.173a37.016,37.016,0,0,1,4.507-.312c1.421.035,2.149-.035,2.773.035a3.712,3.712,0,0,1,1.248.208,3.89,3.89,0,0,1,.52.485A17.378,17.378,0,0,0,1233.521-3406.157Z" transform="translate(-1210.535 3407.269)"/></g><g transform="translate(1180.282 -3637.146)"><ellipse class="f" cx="1.283" cy="1.751" rx="1.283" ry="1.751" transform="translate(0 0)"/></g><g transform="translate(1201.634 -3628.926)"><rect class="h" width="4.159" height="3.071" rx="1.535" transform="translate(0.045 0.193) rotate(-2.048)"/><path d="M1620.252-3295.878a.877.877,0,0,1-.875-.844l-.052-1.465a.871.871,0,0,1,.234-.628.87.87,0,0,1,.61-.278l2.552-.091a.876.876,0,0,1,.906.844l.052,1.465a.871.871,0,0,1-.234.628.871.871,0,0,1-.61.278l-2.552.091Zm2.474-3.161-2.552.091a.725.725,0,0,0-.508.232.725.725,0,0,0-.2.523l.052,1.465a.732.732,0,0,0,.755.7l2.552-.091a.726.726,0,0,0,.508-.232.725.725,0,0,0,.2-.523l-.052-1.464a.73.73,0,0,0-.755-.7Z" transform="translate(-1619.324 3299.185)"/></g><g transform="translate(1181.787 -3627.541)"><rect class="h" width="3.856" height="3.071" rx="1.535" transform="translate(0.046 0.184) rotate(-2.048)"/><path d="M1212.126-3267.418a.847.847,0,0,1-.845-.816l-.055-1.524a.841.841,0,0,1,.226-.607.84.84,0,0,1,.589-.269l2.309-.083a.84.84,0,0,1,.607.226.841.841,0,0,1,.269.589l.055,1.524a.847.847,0,0,1-.815.876l-2.309.083Zm2.255-3.152h-.026l-2.309.083a.7.7,0,0,0-.487.223.7.7,0,0,0-.187.5l.054,1.524a.7.7,0,0,0,.725.674l2.309-.083a.7.7,0,0,0,.675-.725l-.055-1.524a.7.7,0,0,0-.223-.487A.7.7,0,0,0,1214.381-3270.571Z" transform="translate(-1211.225 3270.717)"/></g><g transform="translate(1186.57 -3628.628)"><rect class="i" width="13.075" height="4.269" rx="2.134" transform="translate(0.067 0.85) rotate(-3.432)"/><path d="M1310.389-3287.893a.618.618,0,0,1-.615-.58l-.193-3.224a.612.612,0,0,1,.154-.446.611.611,0,0,1,.425-.207l12.014-.72a.616.616,0,0,1,.653.579l.193,3.224a.618.618,0,0,1-.579.653l-12.014.72Zm11.8-4.983-12.014.721a.419.419,0,0,0-.291.141.42.42,0,0,0-.106.306l.193,3.224a.422.422,0,0,0,.447.4l12.014-.72a.423.423,0,0,0,.4-.447l-.193-3.224a.423.423,0,0,0-.447-.4Z" transform="translate(-1309.58 3293.071)"/></g><g transform="translate(1180.764 -3621.842)"><path class="j" d="M1217.575-3152.664l-27.379,1.632a3.123,3.123,0,0,1,.017-.428c.047-.409.58-.6.58-.6l26.306-1.47a.444.444,0,0,1,.3.259A5.207,5.207,0,0,1,1217.575-3152.664Z" transform="translate(-1190.195 3153.528)"/></g><g transform="translate(1180.765 -3620.978)"><path class="k" d="M1217.6-3135.758v.714a.622.622,0,0,1-.54.389c-.389,0-25.743,1.448-25.743,1.448s-.922.186-1.008-.2a3.712,3.712,0,0,1-.087-.716Z" transform="translate(-1190.219 3135.758)"/></g><g transform="translate(1182.988 -3644.361)"><path d="M1236.438-3605.629a.507.507,0,0,1-.419-.171.488.488,0,0,1-.077-.43c.1-.454,1.526-4.3,1.958-5.32.109-.258.218-.546.324-.824a4.866,4.866,0,0,1,1.142-2.1,6.1,6.1,0,0,1,2.5-.834c1.086-.185,4.647-.581,5.119-.6.15-.008.744-.056,1.495-.117,1.545-.125,3.881-.315,5.3-.392l.38-.021c.979-.054,2.089-.115,3.012-.115,1.614,0,2.025.194,2.215.383.592.592.724,1.67.524,4.273-.041.535-.062,1.032-.081,1.47a8.29,8.29,0,0,1-.253,2.163,1.328,1.328,0,0,1-1.334.959c-1.453.045-8.808.412-11.895.6s-8.106.768-8.843.9c-.151.027-.3.057-.425.083A3.471,3.471,0,0,1,1236.438-3605.629Z" transform="translate(-1235.924 3616.556)"/></g><g transform="translate(1183.182 -3644.165)"><path class="h" d="M1252.706-3609.912c.462-.023,4.669-.393,6.8-.508s4.923-.3,5.385.162.647,1.341.439,4.045.092,4.276-1.387,4.322-8.875.416-11.9.6-8.09.763-8.875.9-1.317.347-1.225-.069,1.5-4.23,1.941-5.27.832-2.427,1.364-2.8a5.947,5.947,0,0,1,2.381-.786C1248.707-3609.5,1252.244-3609.889,1252.706-3609.912Z" transform="translate(-1241.828 3610.652)"/><path d="M1240.248-3601.988a.339.339,0,0,1-.253-.081.292.292,0,0,1-.053-.283c.1-.434,1.531-4.3,1.947-5.286.11-.262.22-.551.326-.831a4.823,4.823,0,0,1,1.072-2.008,6,6,0,0,1,2.42-.8c1.082-.184,4.626-.579,5.1-.6h0c.153-.008.718-.053,1.5-.117,1.545-.125,3.879-.314,5.3-.392l.381-.021c2.614-.144,4.647-.22,5.079.211.461.461.686,1.283.467,4.121-.041.538-.063,1.037-.082,1.477-.078,1.805-.125,2.9-1.4,2.935-1.455.045-8.813.412-11.9.6s-8.125.77-8.865.9c-.154.027-.3.058-.431.084A3.382,3.382,0,0,1,1240.248-3601.988Zm10.564-9.7c-.467.023-4,.416-5.073.6a5.838,5.838,0,0,0-2.342.77,4.9,4.9,0,0,0-1,1.917c-.107.282-.217.573-.329.838-.455,1.077-1.848,4.858-1.936,5.253-.014.061-.008.094,0,.1.06.061.387-.006.675-.066.131-.027.28-.058.436-.086.742-.131,5.78-.713,8.886-.9,3.088-.189,10.45-.556,11.906-.6,1.094-.034,1.133-.942,1.211-2.749.019-.442.041-.942.082-1.483.212-2.751,0-3.558-.411-3.969s-3.02-.26-4.93-.154l-.381.021c-1.414.077-3.746.266-5.29.391-.784.063-1.35.109-1.506.117Z" transform="translate(-1239.929 3612.524)"/></g><g transform="translate(1208.645 -3633.165)"><g transform="translate(0 0)"><path d="M1782.854-3384.963a.424.424,0,0,0-.1-.016l-.278-.028c-.24-.023-.585-.052-1-.087-.833-.069-1.953-.157-3.1-.246l-5.158-.394c-.451-.033-2.883-.2-5.2-.351-1.16-.076-2.292-.148-3.133-.2-.421-.025-.77-.045-1.013-.057l-.282-.012a.438.438,0,0,0-.1,0,.433.433,0,0,0,.1.016c.065.008.16.018.281.029.242.023.59.054,1.01.089.84.071,1.971.162,3.129.254,2.317.183,4.748.368,5.2.4s2.863.2,5.162.343c1.15.073,2.271.143,3.106.191.417.024.763.043,1,.055.121.006.215.009.28.011A.4.4,0,0,0,1782.854-3384.963Z" transform="translate(-1763.485 3386.353)"/></g></g><g transform="translate(1208.945 -3620.904)"><g transform="translate(0 0)"><path d="M1772.678-3134.2a.233.233,0,0,0-.059-.008c-.038,0-.091-.008-.156-.011-.13-.007-.306-.015-.486-.019-.36-.01-.738,0-.809,0s-.452.016-.814.045c-.181.014-.357.031-.489.045l-.157.02a.245.245,0,0,0-.059.011.249.249,0,0,0,.06,0l.158-.009c.131-.007.308-.018.489-.027.362-.018.742-.026.813-.028s.447-.014.807-.015c.18,0,.355,0,.485,0h.157A.235.235,0,0,0,1772.678-3134.2Z" transform="translate(-1769.65 3134.245)"/></g></g><g transform="translate(1208.106 -3643.03)"><path class="h" d="M1754.448-3586.394a3.069,3.069,0,0,1,.046-.6c.046-.092.023-.254.393-.185s3.906.578,3.906.578a.752.752,0,0,1,.555.555c.139.485,1.41,5.963,1.456,6.287s.254,1.225-.208,1.179-3.97-.422-4.415-.462-1.358-.052-1.589-.561a20.035,20.035,0,0,1-.191-3.507Z" transform="translate(-1754.302 3587.294)"/><path d="M1758.722-3580.385l-.043,0-1.571-.165c-1.146-.121-2.572-.272-2.843-.3l-.153-.012c-.512-.039-1.285-.1-1.516-.6a19.348,19.348,0,0,1-.2-3.549l.046-3.282a2.493,2.493,0,0,1,.057-.644.361.361,0,0,0,.014-.037c.055-.164.158-.261.484-.2.364.068,3.867.572,3.9.577a.846.846,0,0,1,.634.624c.146.512,1.414,5.988,1.459,6.3.005.036.012.08.021.128.072.431.126.869-.059,1.066A.309.309,0,0,1,1758.722-3580.385Zm-5.9-8.618c-.1,0-.109.038-.125.086a.463.463,0,0,1-.024.063,3,3,0,0,0-.036.558h0l-.046,3.282a18.532,18.532,0,0,0,.182,3.466c.183.4.916.458,1.354.491l.156.012c.272.025,1.7.176,2.845.3l1.57.165a.124.124,0,0,0,.114-.034c.135-.144.05-.656.009-.9-.008-.05-.016-.1-.021-.133-.044-.311-1.308-5.763-1.453-6.274a.656.656,0,0,0-.477-.486c-.142-.02-3.54-.509-3.908-.578A.777.777,0,0,0,1752.824-3589Z" transform="translate(-1752.395 3589.197)"/></g><g transform="translate(1220.793 -3640.85)"><path class="h" d="M2015.377-3540.907c-.05-.24-.257-1.111-.277-1.341-.012-.142.045-.316.347-.277.43.056,1.212.17,1.391.205.239.047,2.093.355,2.093.355s.575-.019.781.743,1.427,5.229,1.427,5.229.331.877,0,.945a24.439,24.439,0,0,1-2.553-.159s-1.117-.11-1.366-.145-.624-.052-.842-1.113C2016.129-3537.655,2015.427-3540.667,2015.377-3540.907Z" transform="translate(-2015.008 3542.62)"/><path d="M2019.17-3536.692c-.639,0-2.146-.152-2.342-.172-.045,0-1.121-.111-1.37-.145l-.024,0c-.267-.036-.669-.091-.894-1.18-.174-.846-.577-2.6-.818-3.651-.1-.419-.166-.721-.18-.792s-.035-.16-.062-.279c-.085-.377-.2-.894-.217-1.072a.349.349,0,0,1,.093-.29.413.413,0,0,1,.354-.084c.419.054,1.212.17,1.4.206.228.045,1.965.333,2.084.354a.955.955,0,0,1,.858.809c.2.752,1.384,5.069,1.426,5.224.032.085.244.677.1.935a.245.245,0,0,1-.169.126A1.393,1.393,0,0,1,2019.17-3536.692Zm-5.551-7.5a.2.2,0,0,0-.138.041.185.185,0,0,0-.039.145c.014.166.134.7.213,1.048.027.121.05.221.063.282h0c.014.068.084.37.179.789.241,1.05.644,2.807.818,3.655.2.965.513,1.008.743,1.039l.025,0c.245.034,1.352.143,1.363.145a22.707,22.707,0,0,0,2.527.16.068.068,0,0,0,.048-.038,1.412,1.412,0,0,0-.114-.789l0-.008c-.012-.045-1.222-4.467-1.427-5.229-.183-.679-.672-.678-.692-.677h-.017c-.076-.013-1.858-.309-2.1-.355-.182-.036-.968-.15-1.385-.2A.567.567,0,0,0,2013.619-3544.187Z" transform="translate(-2013.263 3544.366)"/></g><g transform="translate(1209.783 -3638.773)"><ellipse class="f" cx="1.742" cy="1.69" rx="1.742" ry="1.69" transform="translate(0 0)"/></g><g transform="translate(1209.394 -3637.202)"><rect class="f" width="3.505" height="0.195" transform="matrix(0.598, -0.801, 0.801, 0.598, 0, 2.808)"/></g><g transform="translate(1208.078 -3643.963)"><g transform="translate(0 0)"><path d="M1768.795-3605.563a1.523,1.523,0,0,0-.325-.088c-.209-.047-.509-.11-.871-.183-.726-.146-1.7-.335-2.706-.522-2.006-.376-4.115-.744-4.51-.81s-2.528-.4-4.566-.7c-1.019-.149-2.013-.288-2.754-.385-.37-.049-.677-.086-.892-.11a1.542,1.542,0,0,0-.339-.023,1.547,1.547,0,0,0,.33.08c.212.042.516.1.884.163.735.132,1.725.3,2.739.476l4.55.783,4.523.726c1.007.161,1.99.319,2.721.432.366.056.669.1.881.13A1.556,1.556,0,0,0,1768.795-3605.563Z" transform="translate(-1751.832 3608.388)"/></g></g><g transform="translate(1207.181 -3634.023)"><g transform="translate(0 0)"><path d="M1733.387-3387.75a.318.318,0,0,0,.078-.037l.091-.05c.034-.022.072-.051.115-.082a2.077,2.077,0,0,0,.562-.673,4.218,4.218,0,0,0,.405-1.188c.094-.454.142-.948.2-1.445.111-1,.193-2.02.236-2.844s.059-1.448.063-1.645.013-.826,0-1.658c-.01-.416-.023-.883-.049-1.372s-.06-1-.094-1.5-.076-1-.138-1.464a8.2,8.2,0,0,0-.247-1.24,2.8,2.8,0,0,0-.362-.808c-.031-.044-.061-.081-.088-.112s-.051-.057-.073-.076a.34.34,0,0,0-.068-.054,2.7,2.7,0,0,1,.2.262,2.973,2.973,0,0,1,.326.807,8.588,8.588,0,0,1,.216,1.234c.052.46.085.957.112,1.46s.056,1.014.073,1.5.027.953.033,1.368c.009.83-.007,1.456-.009,1.653s-.012.818-.049,1.64-.1,1.844-.2,2.84c-.05.5-.089.99-.173,1.439a4.253,4.253,0,0,1-.37,1.175,2.146,2.146,0,0,1-.524.678c-.041.032-.076.063-.108.087l-.085.057A.36.36,0,0,0,1733.387-3387.75Z" transform="translate(-1733.387 3404.004)"/></g></g><g transform="translate(1181.684 -3629.921)"><g transform="translate(0 0)"><path d="M1234-3319.643a.546.546,0,0,0-.127-.006c-.083,0-.2,0-.36.005-.31.007-.755.021-1.292.04-1.074.038-2.517.1-4,.175-.37.019-.742.039-1.111.062l-.276.017-.274.021-.542.04-2.005.15-2.426.185c-.58.046-3.7.31-6.679.569-1.488.13-2.94.258-4.02.359-.54.05-.986.093-1.3.126-.156.016-.278.03-.361.041a.528.528,0,0,0-.127.022.543.543,0,0,0,.129,0c.084,0,.206-.009.363-.018.313-.018.761-.046,1.3-.083,1.082-.073,2.536-.177,4.025-.285,2.98-.218,6.1-.455,6.683-.5l2.424-.2,2-.171.541-.047.274-.023.276-.021,1.109-.077c1.477-.1,2.919-.182,3.991-.248.536-.033.98-.061,1.289-.083.155-.011.276-.021.359-.028A.521.521,0,0,0,1234-3319.643Z" transform="translate(-1209.109 3319.649)"/></g></g><g transform="translate(1181.684 -3623.176)"><g transform="translate(0 0)"><path d="M1235.7-3180.95a.615.615,0,0,0-.136,0c-.089,0-.218.006-.384.013-.331.014-.805.036-1.378.066-1.146.059-2.686.144-4.264.233l-4.5.26-.91.054-.757.049-.925.062c-.62.043-3.956.285-7.137.526-1.591.12-3.142.239-4.3.333-.577.047-1.054.087-1.387.117-.167.015-.3.028-.386.038a.6.6,0,0,0-.135.021.646.646,0,0,0,.137,0c.089,0,.22-.008.387-.015.334-.015.813-.041,1.39-.074,1.156-.066,2.709-.16,4.3-.26,3.184-.2,6.522-.415,7.142-.458l7.083-.492c1.577-.11,3.115-.22,4.259-.306.572-.043,1.045-.08,1.375-.109.165-.014.294-.026.382-.036A.584.584,0,0,0,1235.7-3180.95Z" transform="translate(-1209.109 3180.954)"/></g></g><g transform="translate(1214.746 -3642.036)"><path class="h" d="M1891.04-3565.79c-.006-.127-.087-.457-.11-.717-.014-.161.041-.295.392-.251.5.061,1.405.27,1.613.309.277.052,2.427.393,2.427.393s.67-.023.878.832,1.387,5.616,1.387,5.616.324.9-.046.971-2.82-.162-2.82-.162l-1.433-.139s-.74.092-.994-1.156S1891.046-3565.663,1891.04-3565.79Z" transform="translate(-1890.831 3566.864)"/><path d="M1895.433-3560.427c-.729,0-2.5-.166-2.589-.175l-1.424-.138c-.108.008-.835.014-1.089-1.234-.14-.687-.522-2.33-.829-3.65-.337-1.449-.465-2-.467-2.062h0c0-.052-.021-.154-.041-.263-.026-.143-.056-.3-.069-.449a.333.333,0,0,1,.081-.275.5.5,0,0,1,.419-.082c.376.046.981.175,1.342.253.125.027.225.048.277.058.265.05,2.283.37,2.417.391a1.048,1.048,0,0,1,.965.906c.2.833,1.342,5.437,1.385,5.611.031.088.232.681.075.953a.281.281,0,0,1-.2.141A1.63,1.63,0,0,1,1895.433-3560.427Zm-4.014-.508h.011l1.433.139a26.813,26.813,0,0,0,2.792.163.086.086,0,0,0,.064-.046,1.368,1.368,0,0,0-.092-.8l0-.009c-.012-.048-1.181-4.771-1.387-5.617-.186-.763-.757-.759-.781-.758h-.018c-.088-.014-2.154-.342-2.43-.393-.055-.01-.155-.031-.282-.059-.358-.076-.958-.2-1.326-.25-.178-.022-.24.009-.26.029s-.03.029-.023.118c.012.136.041.293.066.432a2.671,2.671,0,0,1,.044.287c.01.083.23,1.029.463,2.029.307,1.321.689,2.965.83,3.655.231,1.136.861,1.081.887,1.079Z" transform="translate(-1888.923 3568.763)"/></g><g transform="translate(1190.727 -3631.539)"><path class="h" d="M1400.987-3351.323l-.326.979a.081.081,0,0,1-.07.055l-3.953.3a.08.08,0,0,1-.083-.1l.317-.99a.081.081,0,0,1,.071-.056l3.963-.288A.08.08,0,0,1,1400.987-3351.323Z" transform="translate(-1396.478 3351.501)"/><path d="M1395.205-3351.343a.153.153,0,0,1-.121-.058.154.154,0,0,1-.026-.142l.317-.99a.153.153,0,0,1,.135-.106l3.963-.288a.153.153,0,0,1,.132.059.153.153,0,0,1,.024.143h0l-.326.979a.153.153,0,0,1-.134.1l-3.953.3Zm4.28-1.439h0l-3.963.288a.008.008,0,0,0-.007.005l-.317.99a.007.007,0,0,0,0,.007.008.008,0,0,0,.006,0l3.953-.3a.008.008,0,0,0,.007-.005l.326-.979h0a.007.007,0,0,0,0-.007A.008.008,0,0,0,1399.485-3352.782Z" transform="translate(-1395.052 3352.928)"/></g><g transform="translate(1216.866 -3632.363)"><g transform="translate(0 0)"><path d="M1932.736-3358.529a.053.053,0,0,0,0-.014l.009-.042.03-.162c.024-.14.062-.339.1-.582l.058-.394.031-.216.027-.227.057-.478.047-.5c.007-.084.017-.169.023-.253s.012-.169.018-.254c.011-.168.025-.335.032-.5.014-.327.031-.64.034-.919,0-.139.005-.27.008-.39s0-.229,0-.325c0-.192,0-.331,0-.4s-.006-.206-.013-.4c0-.1-.007-.207-.011-.327l-.023-.393c-.01-.14-.014-.29-.029-.444s-.027-.316-.04-.481-.035-.333-.052-.5-.036-.341-.06-.51l-.067-.5-.076-.48-.037-.228-.04-.216-.074-.395c-.047-.243-.094-.443-.123-.583l-.036-.162-.01-.042a.06.06,0,0,0,0-.014.063.063,0,0,0,0,.015l.007.043.031.163c.026.141.069.341.112.585l.069.4.038.217.034.228.072.48.063.5c.023.169.039.34.057.509s.037.337.048.5l.037.48c.014.154.018.3.026.443l.021.392c0,.121.007.23.01.327.006.193.01.332.011.4s0,.2,0,.4c0,.1,0,.2,0,.324s0,.25-.006.39c0,.279-.016.591-.028.917-.006.164-.02.331-.029.5-.005.084-.01.169-.016.253s-.014.169-.021.253l-.043.5-.053.478-.025.227-.029.216-.053.394c-.034.243-.068.443-.089.583l-.024.163-.006.043A.068.068,0,0,0,1932.736-3358.529Z" transform="translate(-1932.513 3369.86)"/></g></g><g transform="translate(1214.138 -3642.431)"><g transform="translate(0)"><path d="M1876.422-3576.88a.045.045,0,0,0,0,.013l.007.037.03.142.113.51.357,1.577.6,2.62.227.963c.117.483.247,1.088.415,1.67a8.659,8.659,0,0,0,.283.832,5.227,5.227,0,0,0,.329.679l.04.07.041.065.076.119c.052.072.1.136.134.186l.092.114.025.03.009.01s0,0-.007-.011l-.022-.031-.088-.117c-.037-.051-.079-.116-.129-.188l-.073-.12-.04-.065-.039-.07a5.331,5.331,0,0,1-.318-.68c-.1-.258-.193-.542-.274-.832-.162-.581-.288-1.187-.4-1.67l-.222-.965-.617-2.616-.375-1.573-.124-.508-.036-.141-.01-.037A.042.042,0,0,0,1876.422-3576.88Z" transform="translate(-1876.421 3576.88)"/></g></g><g transform="translate(1224.987 -3624.008)"><g transform="translate(0 0)"><path d="M2099.507-3194.374a.154.154,0,0,0,.016-.031c.009-.021.024-.051.04-.091a3.143,3.143,0,0,0,.112-.34,10.146,10.146,0,0,0,.195-1.09,6.03,6.03,0,0,1,.117-.6,3.167,3.167,0,0,1,.184-.519,2.271,2.271,0,0,1,.213-.37,2.328,2.328,0,0,1,.151-.181,1.976,1.976,0,0,1,.176-.158,1.381,1.381,0,0,1,.375-.2,1.487,1.487,0,0,1,.257-.06,1.6,1.6,0,0,1,.286-.01,1.616,1.616,0,0,1,.585.149,1.753,1.753,0,0,1,.261.153,2.031,2.031,0,0,1,.223.187,2.13,2.13,0,0,1,.317.4,2.391,2.391,0,0,1,.165.319c.034.079.051.125.053.125a.183.183,0,0,0-.009-.034c-.007-.022-.017-.055-.033-.095a2.143,2.143,0,0,0-.156-.326,2.088,2.088,0,0,0-.314-.411,1.975,1.975,0,0,0-.224-.194,1.761,1.761,0,0,0-.265-.16,1.649,1.649,0,0,0-.6-.16,1.625,1.625,0,0,0-.3.007,1.542,1.542,0,0,0-.267.059,1.42,1.42,0,0,0-.393.205,1.831,1.831,0,0,0-.184.163,2.175,2.175,0,0,0-.155.188,2.338,2.338,0,0,0-.216.381,3.232,3.232,0,0,0-.182.529,5.921,5.921,0,0,0-.111.6c-.056.406-.1.8-.176,1.09-.035.144-.073.261-.1.342l-.035.093A.158.158,0,0,0,2099.507-3194.374Z" transform="translate(-2099.507 3198.071)"/></g></g><g transform="translate(1180.678 -3619.346)"><line class="l" x1="0.087" y2="0.005" transform="translate(0 0)"/></g><g transform="translate(1182.37 -3623.362)"><rect class="m" width="2.663" height="1.32" rx="0.66" transform="translate(0.036 0.154) rotate(-2.554)"/><path d="M1223.6-3183.274a.345.345,0,0,1-.344-.33l-.032-.727a.343.343,0,0,1,.09-.248.344.344,0,0,1,.239-.112l2.068-.092a.345.345,0,0,1,.36.33l.032.727a.343.343,0,0,1-.09.248.344.344,0,0,1-.239.112l-2.068.092Zm2.025-1.412-2.068.092a.246.246,0,0,0-.172.08.246.246,0,0,0-.065.178l.032.727a.249.249,0,0,0,.259.237l2.068-.092a.248.248,0,0,0,.237-.259l-.032-.727a.248.248,0,0,0-.259-.237Z" transform="translate(-1223.221 3184.783)"/></g><g transform="translate(1202.292 -3624.794)"><rect class="m" width="2.942" height="1.32" rx="0.66" transform="translate(0.035 0.166) rotate(-2.554)"/><path d="M1633.257-3212.712a.361.361,0,0,1-.36-.344l-.031-.7a.361.361,0,0,1,.344-.376l2.317-.1a.36.36,0,0,1,.376.344l.031.7a.361.361,0,0,1-.344.376l-2.316.1Zm2.274-1.423-2.316.1a.263.263,0,0,0-.251.275l.031.7a.263.263,0,0,0,.274.251l2.317-.1a.263.263,0,0,0,.251-.274l-.031-.7a.263.263,0,0,0-.275-.251Z" transform="translate(-1632.866 3214.233)"/></g><g transform="translate(1185.896 -3629.31)"><path class="g" d="M1295.776-3305.71a5.232,5.232,0,0,1,.254,1.271l.254-.023s-.139-1.2.185-1.248,2.265-.231,2.265-.231l10.308-.716s.809-.046.878.393.116,2.473.116,2.473l.624-.763s-.3-2.323.093-2.508-14.792,1.052-14.792,1.052-.185-.046-.231.116A.238.238,0,0,0,1295.776-3305.71Z" transform="translate(-1295.724 3307.081)"/></g><g transform="translate(1187.265 -3632.723)"><path class="n" d="M1323.881-3377.267" transform="translate(-1323.881 3377.267)"/></g><g transform="translate(1181.649 -3633.331)"><g transform="translate(0 0)"><path d="M1234.722-3389.768a.6.6,0,0,0-.134-.007c-.088,0-.216,0-.38.006-.328.009-.8.025-1.365.049-1.135.046-2.661.116-4.225.192-3.128.153-6.409.319-7.024.374-.307.021-1.287.1-2.582.209s-2.907.256-4.48.4-3.107.294-4.248.41c-.57.058-1.042.107-1.371.144-.165.019-.293.034-.381.046a.6.6,0,0,0-.134.024.615.615,0,0,0,.136,0c.088,0,.218-.012.383-.023.331-.022.8-.057,1.375-.1l4.254-.336,4.484-.353c1.3-.1,2.275-.17,2.582-.191.611-.055,3.891-.247,7.016-.442l4.221-.266,1.363-.092.379-.029A.576.576,0,0,0,1234.722-3389.768Z" transform="translate(-1208.396 3389.775)"/></g></g><g transform="translate(1208.799 -3634.364)"><path class="g" d="M1767.556-3411.01l-.069.323.069.208-.208.162v.208l-.555-.046s-.277.208-.069.208,18.606,1.364,18.606,1.364.37.046.37-.069a1.226,1.226,0,0,0,.023-.323c-.023-.185-.092-.3-.208-.324s-10.586-.925-10.586-.925l-6.31-.716Z" transform="translate(-1766.647 3411.01)"/></g><g transform="translate(1225.5 -3623.861)"><path class="g" d="M2111.11-3194.438a2.019,2.019,0,0,0-.532.659.283.283,0,0,1-.231.15s-.127.127-.15.162-.162.069-.127-.046a2.752,2.752,0,0,1,.439-1.005,1.56,1.56,0,0,1,.982-.531c.323-.023.451.15.451.219s0,.237-.185.231A1.183,1.183,0,0,0,2111.11-3194.438Z" transform="translate(-2110.064 3195.053)"/></g><g class="o" transform="translate(1212.852 -3620.383)"><path class="p" d="M1852.3-3119.933c0,1.752-.52,3.172-1.161,3.172s-1.161-1.42-1.161-3.172.019-3.542.659-3.588C1851.609-3123.59,1852.3-3121.685,1852.3-3119.933Z" transform="translate(-1849.98 3123.523)"/></g><g class="o" transform="translate(1225.437 -3620.381)"><path class="p" d="M2110.572-3120.19c0,1.608-.407,2.911-.91,2.911s-.91-1.3-.91-2.911.015-3.251.516-3.293C2110.029-3123.547,2110.572-3121.8,2110.572-3120.19Z" transform="translate(-2108.752 3123.485)"/></g></g></g></svg>