<svg xmlns="http://www.w3.org/2000/svg" width="43.422" height="41.805" viewBox="0 0 43.422 41.805"><defs><style>.a{fill:none;stroke:#fff;stroke-linecap:round;stroke-linejoin:round;stroke-width:1.5px;}</style></defs><g transform="translate(-4408.25 -739.481)"><line class="a" x2="1.911" y2="1.15" transform="translate(4444.025 749.668)"/><line class="a" x2="1.816" y2="1.093" transform="translate(4441.406 754.08)"/><path class="a" d="M1530.138,474.044a3.8,3.8,0,0,1,4.921-2.165,3.732,3.732,0,0,1,.388.176,3.11,3.11,0,0,1,4.449,1.758,1.411,1.411,0,0,1,1.4,1.661,2.548,2.548,0,0,1,.341.1,2.427,2.427,0,1,1-3.2,2.968c.05,1.571-4.147,3.182-5.551,1.85a2.892,2.892,0,1,1-2.995-4.644,3.793,3.793,0,0,1,.245-1.709Z" transform="translate(2895.364 275.601)"/><path class="a" d="M1523.217,482.4h-11.734v-4.406h12.628" transform="translate(2900.34 273.671)"/><path class="a" d="M1511.483,482.417v-8.833c0-3.737,2.564-5.438,4.274-5.438v-3.618c-1.553-.134-1.346-2.934.19-2.934h5.662c1.677,0,1.813,2.975.191,2.934v3.618a4.328,4.328,0,0,1,3.571,2.414" transform="translate(2900.341 278.638)"/><path class="a" d="M1509.281,491.463h38.227a1.853,1.853,0,0,1,1.848,1.847h0a1.853,1.853,0,0,1-1.848,1.847h-38.227a1.853,1.853,0,0,1-1.848-1.847h0a1.853,1.853,0,0,1,1.848-1.847Z" transform="translate(2901.567 269.591)"/><path class="a" d="M1510.75,496.764l1.969,12.678c.483,3.108.915,3.108,3.661,3.107l13.019,0,13.323,0c2.746,0,3.095-1.419,3.357-3.107l1.969-12.678Z" transform="translate(2900.562 267.986)"/><path class="a" d="M1535.263,484.388c1.891.755,2.3,2.934,2.9,4.932" transform="translate(2893.138 271.734)"/><path class="a" d="M1543.477,488.582c-.461-1.71-1.02-5.089-.43-6.633" transform="translate(2890.858 272.473)"/><path class="a" d="M1548.345,474.574c3.79-4.578,9.285-8.309,11.38-6.875,2.433,1.665,1.04,7.934-3.112,14-.6.88-1.229,1.706-1.868,2.472" transform="translate(2889.177 276.882)"/><line class="a" x2="1.816" y2="1.093" transform="translate(4438.342 757.762)"/><line class="a" y2="6.525" transform="translate(4422.118 769.035)"/><line class="a" y2="1.986" transform="translate(4425.71 759.068)"/><line class="a" y2="6.525" transform="translate(4432.044 769.035)"/><line class="a" y2="6.525" transform="translate(4437.22 769.035)"/><line class="a" y2="6.525" transform="translate(4427.564 769.089)"/></g></svg>