<svg xmlns="http://www.w3.org/2000/svg" width="58.296" height="39.305" viewBox="0 0 58.296 39.305"><defs><style>.a{fill:#fff;}</style></defs><g transform="translate(-211.485 -129.549)"><path class="a" d="M245.593,162.464h-6.6a.581.581,0,0,1,0-1.162h6.6a.581.581,0,0,1,0,1.162Z" transform="translate(-6.363 -7.503)"/><path class="a" d="M232.887,168.24a.573.573,0,0,1-.25-.057l-1.049-.5a.581.581,0,0,1,.5-1.048l1.049.5a.581.581,0,0,1-.25,1.1Z" transform="translate(-4.672 -8.75)"/><path class="a" d="M225.995,164.953a.573.573,0,0,1-.25-.057l-2-.952a.581.581,0,1,1,.5-1.048l2,.952a.581.581,0,0,1-.25,1.105Z" transform="translate(-2.82 -7.867)"/><path class="a" d="M218.449,161.353a.572.572,0,0,1-.25-.057l-1.049-.5a.581.581,0,1,1,.5-1.048l1.049.5a.58.58,0,0,1-.25,1.1Z" transform="translate(-1.261 -7.123)"/><path class="a" d="M252.224,168.825a.581.581,0,0,1-.406-.165,11.892,11.892,0,0,0-4.783-2.847l-7.962.875a18.668,18.668,0,0,1-9.924-1.635l-.6-.285a.581.581,0,0,1,.5-1.049l.594.283a17.472,17.472,0,0,0,9.3,1.531l8.08-.888a.593.593,0,0,1,.229.021,13.058,13.058,0,0,1,4.995,2.806l9.875-7.248-4.617-4.028a11.821,11.821,0,0,0-9.058-2.84l-10.538,1.159a4.66,4.66,0,0,0-4.119,5.136.581.581,0,0,1-.815.593l-14.61-6.562a2.321,2.321,0,0,0-2.873.763,2.23,2.23,0,0,0,.919,3.248l.562.268a.581.581,0,0,1-.5,1.049l-.557-.266a3.392,3.392,0,0,1-1.4-4.937,3.493,3.493,0,0,1,4.317-1.185l13.772,6.186a5.827,5.827,0,0,1,5.172-5.447l10.537-1.159a12.978,12.978,0,0,1,9.949,3.12l5.164,4.5a.58.58,0,0,1-.038.906l-10.477,7.69a3.451,3.451,0,0,0-.3.251A.579.579,0,0,1,252.224,168.825Z" transform="translate(-0.586 -5.334)"/><path class="a" d="M262.966,176.04a.581.581,0,0,1-.469-.238,4.632,4.632,0,0,1,.992-6.466l11.556-8.481a4.631,4.631,0,0,1,6.466.992.581.581,0,1,1-.936.687,3.468,3.468,0,0,0-4.843-.743l-11.556,8.481a3.468,3.468,0,0,0-.743,4.843.581.581,0,0,1-.467.925Z" transform="translate(-11.843 -7.186)"/><path class="a" d="M245.574,135.527H217.725a.581.581,0,0,1-.342-1.049l4.552-3.327a.569.569,0,0,1,.064-.041,12.769,12.769,0,0,1,6.106-1.559h6.941a11.528,11.528,0,0,1,6.443,1.96l4.407,2.954a.58.58,0,0,1-.323,1.063Zm-26.07-1.161h24.161l-2.821-1.892a10.37,10.37,0,0,0-5.8-1.763h-6.941a11.6,11.6,0,0,0-5.515,1.4Z" transform="translate(-1.337)"/><path class="a" d="M237.854,135.527H227.9a.58.58,0,0,1-.548-.775l1.7-4.778a.58.58,0,0,1,.5-.384c.318-.024.637-.04.957-.04h6.941c.1,0,.2.005.3.01l.125.005a.581.581,0,0,1,.559.58v4.8A.581.581,0,0,1,237.854,135.527Zm-9.136-1.161h8.556v-3.655h-6.765q-.247,0-.494.013Z" transform="translate(-3.74)"/><path class="a" d="M240.935,147.031a.58.58,0,0,1-.58-.58V136.436a.581.581,0,0,1,1.162,0V146.45A.581.581,0,0,1,240.935,147.031Z" transform="translate(-6.822 -1.49)"/><path class="a" d="M246.259,140.545h-1.8a.581.581,0,1,1,0-1.162h1.8a.581.581,0,0,1,0,1.162Z" transform="translate(-7.655 -2.324)"/><path class="a" d="M227.9,144.217a.581.581,0,0,1-.581-.58v-7.2a.581.581,0,0,1,1.162,0v7.2A.581.581,0,0,1,227.9,144.217Z" transform="translate(-3.74 -1.49)"/><path class="a" d="M232.74,140.545h-1.959a.581.581,0,1,1,0-1.162h1.959a.581.581,0,1,1,0,1.162Z" transform="translate(-4.422 -2.324)"/><path class="a" d="M255.056,147.031h-2.724a.58.58,0,0,1-.58-.58,3.593,3.593,0,0,0-7.186,0,.58.58,0,0,1-.581.58H226.107a.58.58,0,0,1-.58-.58,3.593,3.593,0,0,0-7.186-.006.582.582,0,0,1-.6.58,2.69,2.69,0,0,1-2.612-2.7v-6.352a2.122,2.122,0,0,1,2.12-2.12H250.43a7.337,7.337,0,0,1,7.329,7.329v1.142A2.705,2.705,0,0,1,255.056,147.031Zm-2.179-1.162h2.179a1.543,1.543,0,0,0,1.542-1.541v-1.142a6.175,6.175,0,0,0-6.168-6.168H217.249a.961.961,0,0,0-.959.959v6.352a1.529,1.529,0,0,0,.942,1.416,4.755,4.755,0,0,1,9.421.125h16.785a4.755,4.755,0,0,1,9.439,0Z" transform="translate(-0.861 -1.49)"/><path class="a" d="M214.848,146.958h-1.729a1.634,1.634,0,0,1-.066-3.266l1.772-.071a.571.571,0,0,1,.426.161.58.58,0,0,1,.178.418v2.177A.581.581,0,0,1,214.848,146.958Zm-.58-2.153-1.168.047a.472.472,0,0,0,.019.944h1.149Z" transform="translate(0 -3.325)"/><path class="a" d="M267.615,142.033h-4a.579.579,0,0,1-.373-.136l-2.289-1.925a.579.579,0,0,1-.207-.444,1.992,1.992,0,0,1,1.989-1.99h2.5a.58.58,0,1,1,0,1.161h-2.5a.83.83,0,0,0-.793.589l1.884,1.584h3.787a.581.581,0,0,1,0,1.162Z" transform="translate(-11.64 -1.888)"/><path class="a" d="M253.883,151.71a.58.58,0,0,1-.421-.181,4.755,4.755,0,1,1,7.237-.411.581.581,0,0,1-.533.226,11.8,11.8,0,0,0-2.693-.025l-3.526.388A.607.607,0,0,1,253.883,151.71Zm3.024-7.046a3.59,3.59,0,0,0-2.788,5.855l3.227-.355a12.931,12.931,0,0,1,2.609-.011,3.545,3.545,0,0,0,.546-1.9A3.6,3.6,0,0,0,256.907,144.664Z" transform="translate(-9.609 -3.297)"/><path class="a" d="M222.568,153.012c-.04,0-.079,0-.118-.005a.769.769,0,0,1-.257-.053l-2.888-1.3a.585.585,0,0,1-.183-.13,4.751,4.751,0,1,1,3.447,1.485Zm-2.679-2.366,2.676,1.2a3.6,3.6,0,1,0-2.676-1.2Z" transform="translate(-1.496 -3.297)"/><path class="a" d="M258.048,148.333a1.065,1.065,0,1,0,1.065,1.065A1.065,1.065,0,0,0,258.048,148.333Z" transform="translate(-10.751 -4.439)"/><path class="a" d="M223.709,148.333a1.065,1.065,0,1,0,1.066,1.065A1.065,1.065,0,0,0,223.709,148.333Z" transform="translate(-2.637 -4.439)"/><path class="a" d="M238.239,155.586H223.679a.581.581,0,0,1,0-1.162h14.559a.581.581,0,1,1,0,1.162Z" transform="translate(-2.744 -5.878)"/></g></svg>