<?xml version="1.0" encoding="utf-8"?>
<!-- Generator: Adobe Illustrator 25.0.1, SVG Export Plug-In . SVG Version: 6.00 Build 0)  -->
<svg version="1.1" id="Layer_1" xmlns="http://www.w3.org/2000/svg" xmlns:xlink="http://www.w3.org/1999/xlink" x="0px" y="0px"
	 viewBox="0 0 53 53" style="enable-background:new 0 0 53 53;" xml:space="preserve">
<style type="text/css">
	.st0{fill:none;}
	.st1{fill:#DB343C;}
</style>
<g transform="translate(0.484 -0.5)">
	<path class="st0" d="M26,0.5c14.6,0,26.5,11.9,26.5,26.5S40.7,53.5,26,53.5S-0.5,41.6-0.5,27S11.4,0.5,26,0.5z"/>
	<path class="st1" d="M26,2.5c-3.3,0-6.5,0.6-9.5,1.9c-2.9,1.2-5.5,3-7.8,5.3c-2.3,2.3-4,4.9-5.3,7.8c-1.3,3-1.9,6.2-1.9,9.5
		s0.6,6.5,1.9,9.5c1.2,2.9,3,5.5,5.3,7.8c2.3,2.3,4.9,4,7.8,5.3c3,1.3,6.2,1.9,9.5,1.9s6.5-0.6,9.5-1.9c2.9-1.2,5.5-3,7.8-5.3
		c2.3-2.3,4-4.9,5.3-7.8c1.3-3,1.9-6.2,1.9-9.5s-0.6-6.5-1.9-9.5c-1.2-2.9-3-5.5-5.3-7.8c-2.3-2.3-4.9-4-7.8-5.3
		C32.5,3.1,29.3,2.5,26,2.5 M26,0.5c14.6,0,26.5,11.9,26.5,26.5S40.7,53.5,26,53.5S-0.5,41.6-0.5,27S11.4,0.5,26,0.5z"/>
</g>
<g>
	<g>
		<path class="st1" d="M28.4,11.5h-3.7c-8.4,0-13.2,4.8-13.2,13.1V27c0,4.1,1.1,7.3,3.3,9.6c1,1,2.2,1.8,3.5,2.4v3.5
			c0,0.8,0.6,1.4,1.4,1.3c0.4,0,0.7-0.2,1-0.5c0.7-0.7,1.9-2.2,3-3.5h6.5c3.2,0,6.1-1.2,8.1-3.5c2.1-2.3,3.3-5.7,3.3-9.6v-2.1
			C41.6,16.4,36.6,11.5,28.4,11.5z M39.2,26.7c0,7-4,10.7-9,10.7h-4.5H25h-0.5c-0.1,0-0.2,0-0.2,0.1c-0.5,0.6-1.2,1.4-1.9,2.2
			c-1,1.1-1.9,2.2-2.5,2.8c-0.1,0.1-0.1,0.1-0.2,0.1c-0.1,0-0.3-0.1-0.3-0.3v-3.1v-2.3c0-0.1-0.1-0.2-0.2-0.3
			c-0.1,0-0.2-0.1-0.3-0.1c-0.2-0.1-0.4-0.2-0.5-0.3c-2.7-1.5-4.5-4.5-4.5-9.4v-2.4c0-6.8,3.6-10.7,10.9-10.7h3.7
			c7,0,10.9,3.9,10.9,10.7V26.7z"/>
		<path class="st1" d="M32.7,30l-1.8-1.2c-0.7-0.5-1.6-0.4-2.2,0.3l-0.4,0.5c0,0-0.1,0.1-0.1,0.1c-0.1,0.1-0.2,0.2-0.4,0.1l0,0
			c-0.7-0.1-1.4-0.3-2-0.7c-1-0.7-1.8-1.6-2.5-2.5c-0.4-0.6-0.7-1.3-0.7-2l0,0c0-0.1,0-0.3,0.1-0.4c0,0,0.1-0.1,0.1-0.1l0.5-0.4
			c0.6-0.6,0.7-1.5,0.3-2.2l-1.2-1.8c-0.6-0.8-1.7-1-2.5-0.4l-0.3,0.3c-0.9,0.7-1.2,2-0.8,3.1c0.4,1,0.8,2,1.7,3.5
			c0,0,1,1.7,2.5,3.3c1.4,1.4,3.3,2.5,3.3,2.5c1.4,0.9,2.5,1.3,3.5,1.7c1.1,0.5,2.4,0.2,3.1-0.8l0.3-0.3
			C33.7,31.7,33.5,30.5,32.7,30z"/>
		<path class="st1" d="M32.1,20.1c-1.5-1.5-3.6-2.3-5.9-2.2c-0.2,0-0.4,0.2-0.4,0.4c0,0.1,0,0.2,0.1,0.3c0.1,0.1,0.2,0.1,0.3,0.1
			c2.1-0.1,3.9,0.6,5.3,2c1.4,1.4,2.1,3.3,2,5.3c0,0.2,0.2,0.4,0.4,0.4c0.2,0,0.4-0.2,0.4-0.4C34.4,23.7,33.7,21.6,32.1,20.1
			C32.1,20.1,32.1,20.1,32.1,20.1z"/>
		<path class="st1" d="M31.7,25.6c0.1,0.1,0.2,0.1,0.3,0.1c0.2,0,0.4-0.2,0.4-0.4c0.1-1.5-0.4-3-1.5-4c-1-1-2.5-1.5-4-1.5
			c-0.2,0-0.4,0.2-0.4,0.4c0,0.2,0.2,0.4,0.4,0.4c1.3-0.1,2.5,0.4,3.4,1.2c0.9,0.9,1.3,2.1,1.2,3.4C31.5,25.4,31.6,25.5,31.7,25.6z"
			/>
		<path class="st1" d="M29.6,24.9c0.1,0.1,0.2,0.1,0.3,0.1c0.2,0,0.4-0.2,0.4-0.4c0-0.8-0.2-1.4-0.7-2c-0.5-0.5-1.2-0.8-2-0.7
			c-0.2,0-0.4,0.2-0.4,0.4c0,0.2,0.2,0.4,0.4,0.4c0.5,0,1,0.1,1.3,0.5c0.3,0.3,0.5,0.8,0.5,1.3C29.5,24.7,29.6,24.8,29.6,24.9z"/>
	</g>
</g>
</svg>
