<?xml version="1.0" encoding="utf-8"?>
<!-- Generator: Adobe Illustrator 25.0.1, SVG Export Plug-In . SVG Version: 6.00 Build 0)  -->
<svg version="1.1" id="Layer_1" xmlns="http://www.w3.org/2000/svg" xmlns:xlink="http://www.w3.org/1999/xlink" x="0px" y="0px"
	 viewBox="0 0 53 53" style="enable-background:new 0 0 53 53;" xml:space="preserve">
<style type="text/css">
	.st0{fill:none;}
	.st1{fill:#DB343C;}
	.st2{fill-rule:evenodd;clip-rule:evenodd;fill:#DB343C;}
</style>
<g transform="translate(0.484 -0.5)">
	<path class="st0" d="M26,0.5c14.6,0,26.5,11.9,26.5,26.5S40.7,53.5,26,53.5S-0.5,41.6-0.5,27S11.4,0.5,26,0.5z"/>
	<path class="st1" d="M26,2.5c-3.3,0-6.5,0.6-9.5,1.9c-2.9,1.2-5.5,3-7.8,5.3c-2.3,2.3-4,4.9-5.3,7.8c-1.3,3-1.9,6.2-1.9,9.5
		s0.6,6.5,1.9,9.5c1.2,2.9,3,5.5,5.3,7.8c2.3,2.3,4.9,4,7.8,5.3c3,1.3,6.2,1.9,9.5,1.9s6.5-0.6,9.5-1.9c2.9-1.2,5.5-3,7.8-5.3
		c2.3-2.3,4-4.9,5.3-7.8c1.3-3,1.9-6.2,1.9-9.5s-0.6-6.5-1.9-9.5c-1.2-2.9-3-5.5-5.3-7.8c-2.3-2.3-4.9-4-7.8-5.3
		C32.5,3.1,29.3,2.5,26,2.5 M26,0.5c14.6,0,26.5,11.9,26.5,26.5S40.7,53.5,26,53.5S-0.5,41.6-0.5,27S11.4,0.5,26,0.5z"/>
</g>
<g>
	<g>
		<g>
			<path class="st2" d="M34.3,28.9c-0.4-0.2-2.1-1.1-2.4-1.3c-0.3-0.1-0.6-0.2-0.8,0.2c-0.3,0.4-1,1.1-1.2,1.4
				c-0.2,0.2-0.4,0.3-0.8,0.1c-0.4-0.2-1.5-0.6-2.9-1.9c-1-1-1.7-2.2-1.9-2.6c-0.2-0.4,0-0.6,0.2-0.7c0.2-0.2,0.4-0.4,0.6-0.6
				c0.2-0.2,0.3-0.4,0.4-0.6c0.1-0.2,0.1-0.5,0-0.6c-0.1-0.2-0.7-2-1-2.7c-0.3-0.7-0.6-0.6-0.8-0.6c-0.2,0-0.5,0-0.7-0.1
				c-0.2,0-0.6,0.1-1,0.4c-0.3,0.4-1.3,1.2-1.4,3c-0.1,1.8,1.2,3.6,1.3,3.8c0.2,0.3,2.4,4.1,6,5.7c3.7,1.6,3.7,1.1,4.3,1.1
				c0.7,0,2.2-0.8,2.5-1.6c0.3-0.8,0.4-1.6,0.3-1.7C34.9,29.1,34.6,29,34.3,28.9L34.3,28.9z M27.6,37.5c-2.4,0-4.7-0.7-6.5-2
				L16.5,37l1.5-4.4c-1.4-2-2.3-4.4-2.3-7c0-6.6,5.3-11.9,11.9-11.9c6.6,0,11.9,5.3,11.9,11.9C39.5,32.2,34.1,37.5,27.6,37.5
				L27.6,37.5z M27.6,11.3c-7.9,0-14.3,6.4-14.3,14.3c0,2.7,0.7,5.2,2,7.4l-2.6,7.7l7.9-2.5c2,1.1,4.4,1.8,6.9,1.8
				c7.9,0,14.3-6.4,14.3-14.3C41.8,17.7,35.5,11.3,27.6,11.3L27.6,11.3z"/>
		</g>
	</g>
</g>
</svg>
